<mxfile host="app.diagrams.net" agent="Mozilla/5.0 (Macintosh; Intel Mac OS X 10_15_7) AppleWebKit/537.36 (KHTML, like Gecko) Chrome/128.0.0.0 Safari/537.36" version="24.8.4">
  <diagram name="第 1 页" id="A2_o63IfxjyKfNZ6jgSW">
    <mxGraphModel dx="1417" dy="1823" grid="1" gridSize="10" guides="1" tooltips="1" connect="1" arrows="1" fold="1" page="1" pageScale="1" pageWidth="827" pageHeight="1169" math="0" shadow="0">
      <root>
        <mxCell id="0" />
        <mxCell id="1" parent="0" />
        <mxCell id="CGiE7vuEJ3qXT8lJ0x0y-1" value="Traffic Grow 100%" style="text;html=1;align=center;verticalAlign=middle;whiteSpace=wrap;rounded=0;" vertex="1" parent="1">
          <mxGeometry x="320" y="40" width="150" height="30" as="geometry" />
        </mxCell>
        <mxCell id="CGiE7vuEJ3qXT8lJ0x0y-2" value="&lt;p style=&quot;&quot;&gt;&lt;font style=&quot;font-size: 12px;&quot; face=&quot;Helvetica&quot;&gt;Keyword -&amp;gt; 116M(&lt;span style=&quot;color: rgb(29, 30, 38); text-align: left; background-color: rgb(255, 255, 255);&quot;&gt;eligible&lt;/span&gt;)&lt;/font&gt;&lt;/p&gt;" style="text;html=1;align=center;verticalAlign=middle;whiteSpace=wrap;rounded=0;" vertex="1" parent="1">
          <mxGeometry x="40" y="120" width="150" height="30" as="geometry" />
        </mxCell>
        <mxCell id="CGiE7vuEJ3qXT8lJ0x0y-3" value="Landing Page -&amp;gt; 116M&amp;nbsp;" style="text;html=1;align=center;verticalAlign=middle;whiteSpace=wrap;rounded=0;" vertex="1" parent="1">
          <mxGeometry x="320" y="120" width="150" height="30" as="geometry" />
        </mxCell>
        <mxCell id="CGiE7vuEJ3qXT8lJ0x0y-4" value="Index Rate -&amp;gt; 37%" style="text;html=1;align=center;verticalAlign=middle;whiteSpace=wrap;rounded=0;" vertex="1" parent="1">
          <mxGeometry x="600" y="120" width="150" height="30" as="geometry" />
        </mxCell>
        <mxCell id="CGiE7vuEJ3qXT8lJ0x0y-5" value="&lt;p style=&quot;box-sizing: border-box; margin: 0px 0px 10px; color: rgb(29, 30, 38); font-family: Circular, sans-serif; font-style: normal; font-variant-ligatures: normal; font-variant-caps: normal; font-weight: 400; letter-spacing: normal; orphans: 2; text-indent: 0px; text-transform: none; widows: 2; word-spacing: 0px; -webkit-text-stroke-width: 0px; white-space: normal; background-color: rgb(255, 255, 255); text-decoration-thickness: initial; text-decoration-style: initial; text-decoration-color: initial; font-size: 11px;&quot;&gt;&lt;font style=&quot;font-size: 11px;&quot;&gt;wlw&lt;/font&gt;&lt;/p&gt;&lt;p style=&quot;box-sizing: border-box; margin: 0px 0px 10px; color: rgb(29, 30, 38); font-family: Circular, sans-serif; font-style: normal; font-variant-ligatures: normal; font-variant-caps: normal; font-weight: 400; letter-spacing: normal; orphans: 2; text-indent: 0px; text-transform: none; widows: 2; word-spacing: 0px; -webkit-text-stroke-width: 0px; white-space: normal; background-color: rgb(255, 255, 255); text-decoration-thickness: initial; text-decoration-style: initial; text-decoration-color: initial; font-size: 11px;&quot;&gt;&lt;font style=&quot;font-size: 11px;&quot;&gt;225K indexed showroom page -&amp;gt; 262 daily click&lt;/font&gt;&lt;/p&gt;&lt;p style=&quot;box-sizing: border-box; margin: 0px 0px 10px; color: rgb(29, 30, 38); font-family: Circular, sans-serif; font-style: normal; font-variant-ligatures: normal; font-variant-caps: normal; font-weight: 400; letter-spacing: normal; orphans: 2; text-indent: 0px; text-transform: none; widows: 2; word-spacing: 0px; -webkit-text-stroke-width: 0px; white-space: normal; background-color: rgb(255, 255, 255); text-decoration-thickness: initial; text-decoration-style: initial; text-decoration-color: initial; font-size: 11px;&quot;&gt;&lt;font style=&quot;font-size: 11px;&quot;&gt;index rate 37%&lt;/font&gt;&lt;/p&gt;&lt;p style=&quot;box-sizing: border-box; margin: 0px 0px 10px; color: rgb(29, 30, 38); font-family: Circular, sans-serif; font-style: normal; font-variant-ligatures: normal; font-variant-caps: normal; font-weight: 400; letter-spacing: normal; orphans: 2; text-indent: 0px; text-transform: none; widows: 2; word-spacing: 0px; -webkit-text-stroke-width: 0px; white-space: normal; background-color: rgb(255, 255, 255); text-decoration-thickness: initial; text-decoration-style: initial; text-decoration-color: initial; font-size: 11px;&quot;&gt;&lt;font style=&quot;font-size: 11px;&quot;&gt;so:&lt;/font&gt;&lt;/p&gt;&lt;p style=&quot;box-sizing: border-box; margin: 0px 0px 10px; color: rgb(29, 30, 38); font-family: Circular, sans-serif; font-style: normal; font-variant-ligatures: normal; font-variant-caps: normal; font-weight: 400; letter-spacing: normal; orphans: 2; text-indent: 0px; text-transform: none; widows: 2; word-spacing: 0px; -webkit-text-stroke-width: 0px; white-space: normal; background-color: rgb(255, 255, 255); text-decoration-thickness: initial; text-decoration-style: initial; text-decoration-color: initial; font-size: 11px;&quot;&gt;&lt;font style=&quot;font-size: 11px;&quot;&gt;43M indexed page -&amp;gt; 50K daily click&lt;/font&gt;&lt;/p&gt;&lt;p style=&quot;box-sizing: border-box; margin: 0px 0px 10px; color: rgb(29, 30, 38); font-family: Circular, sans-serif; font-style: normal; font-variant-ligatures: normal; font-variant-caps: normal; font-weight: 400; letter-spacing: normal; orphans: 2; text-indent: 0px; text-transform: none; widows: 2; word-spacing: 0px; -webkit-text-stroke-width: 0px; white-space: normal; background-color: rgb(255, 255, 255); text-decoration-thickness: initial; text-decoration-style: initial; text-decoration-color: initial; font-size: 11px;&quot;&gt;&lt;font style=&quot;font-size: 11px;&quot;&gt;116M landing page -&amp;gt; 43M indexed page&lt;/font&gt;&lt;/p&gt;&lt;p style=&quot;box-sizing: border-box; margin: 0px 0px 10px; color: rgb(29, 30, 38); font-family: Circular, sans-serif; font-style: normal; font-variant-ligatures: normal; font-variant-caps: normal; font-weight: 400; letter-spacing: normal; orphans: 2; text-indent: 0px; text-transform: none; widows: 2; word-spacing: 0px; -webkit-text-stroke-width: 0px; white-space: normal; background-color: rgb(255, 255, 255); text-decoration-thickness: initial; text-decoration-style: initial; text-decoration-color: initial; font-size: 11px;&quot;&gt;&lt;font style=&quot;font-size: 11px;&quot;&gt;116M eligible keyword -&amp;gt; 116M landing page&lt;/font&gt;&lt;/p&gt;&lt;p style=&quot;box-sizing: border-box; margin: 0px 0px 10px; color: rgb(29, 30, 38); font-family: Circular, sans-serif; font-style: normal; font-variant-ligatures: normal; font-variant-caps: normal; font-weight: 400; letter-spacing: normal; orphans: 2; text-indent: 0px; text-transform: none; widows: 2; word-spacing: 0px; -webkit-text-stroke-width: 0px; white-space: normal; background-color: rgb(255, 255, 255); text-decoration-thickness: initial; text-decoration-style: initial; text-decoration-color: initial; font-size: 11px;&quot;&gt;&lt;font style=&quot;font-size: 11px;&quot;&gt;let eligible keyword percent = 50%:&lt;/font&gt;&lt;/p&gt;&lt;p style=&quot;box-sizing: border-box; margin: 0px; color: rgb(29, 30, 38); font-family: Circular, sans-serif; font-style: normal; font-variant-ligatures: normal; font-variant-caps: normal; font-weight: 400; letter-spacing: normal; orphans: 2; text-indent: 0px; text-transform: none; widows: 2; word-spacing: 0px; -webkit-text-stroke-width: 0px; white-space: normal; background-color: rgb(255, 255, 255); text-decoration-thickness: initial; text-decoration-style: initial; text-decoration-color: initial; font-size: 11px;&quot;&gt;&lt;font style=&quot;font-size: 11px;&quot;&gt;332M keyword -&amp;gt; 116M eligible keyword&lt;/font&gt;&lt;/p&gt;" style="text;whiteSpace=wrap;html=1;align=left;" vertex="1" parent="1">
          <mxGeometry x="80" y="-220" width="280" height="220" as="geometry" />
        </mxCell>
      </root>
    </mxGraphModel>
  </diagram>
</mxfile>
